# xmcd
#
# Track frame offsets:
#	150
#	19035
#	36107
#	50365
#	67015
#	85542
#	99385
#	118892
#	139367
#	156937
#	174282
#	189270
#	204010
#	215105
#	234520
#	248332
#	261212
#	276780
#	296245
#	308367
#	325155
#
# Disc length: 4649 seconds
#
# Revision: 3
# Processed by: cddbd v1.5.1PL2 Copyright (c) Steve Scherf et al.
# Submitted via: EasyCDDAExtractor 9.0.0.1
#
DISCID=22122715
DTITLE=Lightnin' Hopkins - The Complete Prestige/Bluesville Recordings - Disc 
DTITLE=2
DYEAR=1991
DGENRE=Blues
TTITLE0=Black Gal
TTITLE1=Baby Don't You Tear My Clothes
TTITLE2=Good Morning Little School Girl
TTITLE3=Coffee Blues
TTITLE4=Buddy Brown's Blues (98 Degree Blues)
TTITLE5=Wine Spodee-O-Dee
TTITLE6=Sail on, Little Girl, Sail on
TTITLE7=DC-7
TTITLE8=Death Bells
TTITLE9=Goin' To Dallas To See My Pony Run
TTITLE10=Jailhouse Blues
TTITLE11=Blues In The Bottle
TTITLE12=Beans, Beans, Beans
TTITLE13=Catfish Blues
TTITLE14=My Grandpa Is Old Too!
TTITLE15=T Model Blues
TTITLE16=Jackstropper Blues
TTITLE17=You Cook All Right
TTITLE18=You Never Miss Your Water
TTITLE19=Let's Do The Suzie Q
TTITLE20=Smokes Like Lightning
EXTD=
EXTT0=
EXTT1=
EXTT2=
EXTT3=
EXTT4=
EXTT5=
EXTT6=
EXTT7=
EXTT8=
EXTT9=
EXTT10=
EXTT11=
EXTT12=
EXTT13=
EXTT14=
EXTT15=
EXTT16=
EXTT17=
EXTT18=
EXTT19=
EXTT20=
PLAYORDER=
